# xmcd
#
# Track frame offsets: 
#        150
#        15147
#        51331
#        64587
#        81003
#        98377
#        114561
#        129502
#        143155
#        159101
#        177746
#        207205
#        242760
#        260712
#        276461
#        310102
#        326566
#
# Disc length: 4609 seconds
#
# Revision: 0
# Processed by: cddbd v1.5.2PL0 Copyright (c) Steve Scherf et al.
# Submitted via: ExactAudioCopy v1.0b3
#
DISCID=e611ff11
DTITLE=Various Artist - Mystic Trance Vol. 2 - CD 2
DYEAR=1900
DGENRE=
TTITLE0=Mario Lopez - I Can't Believe It (Biscaya) (Radio Mix)
TTITLE1=Denga and Manus - Cenwen (Deja Vu Rmx)
TTITLE2=Gigi D'Agostino - I Wonder Why (Non Giochiamo F.M.)
TTITLE3=Krystal - Eternity (Phalanx Rmx Edit)
TTITLE4=Pulsedriver - Vagabonds
TTITLE5=Marc Van Linden - Forbidden Love (B-Cut)
TTITLE6=Cascada - Everytime We Touch (Radio Edit)
TTITLE7=Rokk and Senkseil - Der Leiermann (Original Radio)
TTITLE8=Phalanx - Symphony In Gminor
TTITLE9=Tiesto - Ur (Junky XL Mix Edit)
TTITLE10=Airwave - Sky Blues (Icarus Mix)
TTITLE11=Lara - Island (Your Love Is My Island) (Age-M Club Mix)
TTITLE12=Baton and Lowell - She Died In Paradise (Short Mix)
TTITLE13=Aveda Feat. Corrie - 2 Souls
TTITLE14=Vicky Devine Pres. Saphara - Entravanse (Original Mix)
TTITLE15=Niels Van Gogh Vs. Tandu - Turn It Around Baby (Single Mix)
TTITLE16=Rank 1 - Symsonic (Album Version)
EXTD=
EXTT0=
EXTT1=
EXTT2=
EXTT3=
EXTT4=
EXTT5=
EXTT6=
EXTT7=
EXTT8=
EXTT9=
EXTT10=
EXTT11=
EXTT12=
EXTT13=
EXTT14=
EXTT15=
EXTT16=
PLAYORDER=
